<svg width="24" height="18" viewBox="0 0 24 18" fill="none" xmlns="http://www.w3.org/2000/svg">
<path d="M9.75 10.125C9.75 10.3475 9.68402 10.565 9.5604 10.75C9.43679 10.935 9.26109 11.0792 9.05552 11.1644C8.84995 11.2495 8.62375 11.2718 8.40552 11.2284C8.18729 11.185 7.98684 11.0778 7.8295 10.9205C7.67217 10.7632 7.56502 10.5627 7.52162 10.3445C7.47821 10.1263 7.50049 9.90006 7.58563 9.69449C7.67078 9.48892 7.81498 9.31322 7.99998 9.18961C8.18499 9.06599 8.4025 9.00001 8.625 9.00001C8.92337 9.00001 9.20952 9.11854 9.42049 9.32952C9.63147 9.54049 9.75 9.82664 9.75 10.125ZM15.375 9.00001C15.1525 9.00001 14.935 9.06599 14.75 9.18961C14.565 9.31322 14.4208 9.48892 14.3356 9.69449C14.2505 9.90006 14.2282 10.1263 14.2716 10.3445C14.315 10.5627 14.4222 10.7632 14.5795 10.9205C14.7368 11.0778 14.9373 11.185 15.1555 11.2284C15.3738 11.2718 15.6 11.2495 15.8055 11.1644C16.0111 11.0792 16.1868 10.935 16.3104 10.75C16.434 10.565 16.5 10.3475 16.5 10.125C16.5 9.82664 16.3815 9.54049 16.1705 9.32952C15.9595 9.11854 15.6734 9.00001 15.375 9.00001ZM22.3547 15.0844L16.0734 17.8697C15.8846 17.9537 15.6805 17.9981 15.4738 18.0003C15.2672 18.0025 15.0622 17.9625 14.8716 17.8826C14.681 17.8027 14.5087 17.6846 14.3654 17.5357C14.222 17.3868 14.1107 17.2101 14.0381 17.0166L13.2778 14.9541C12.8578 14.9822 12.4319 14.9966 12 14.9972C11.5681 14.9978 11.1422 14.9834 10.7222 14.9541L9.96187 17.0166C9.88921 17.21 9.77779 17.3866 9.63444 17.5354C9.49109 17.6843 9.31883 17.8023 9.12824 17.8822C8.93766 17.9621 8.73276 18.0022 8.52612 18C8.31947 17.9979 8.11545 17.9535 7.92656 17.8697L1.64531 15.0844C1.32111 14.9426 1.05777 14.6904 0.902216 14.3726C0.746661 14.0548 0.708997 13.6921 0.795937 13.3491L3.5625 2.43751C3.63551 2.15374 3.78969 1.89741 4.00616 1.69993C4.22263 1.50244 4.49198 1.37237 4.78125 1.32564L8.16187 0.769698C8.53456 0.709756 8.91621 0.790569 9.23261 0.99642C9.54901 1.20227 9.77754 1.51844 9.87375 1.88345L10.1794 3.0872C10.775 3.02907 11.3819 3.00001 12 3.00001C12.6181 3.00001 13.2244 3.02907 13.8187 3.0872L14.1244 1.88345C14.2204 1.51833 14.4489 1.20203 14.7653 0.996145C15.0818 0.790261 15.4635 0.709538 15.8362 0.769698L19.2187 1.32564C19.508 1.37237 19.7774 1.50244 19.9938 1.69993C20.2103 1.89741 20.3645 2.15374 20.4375 2.43751L23.2059 13.3481C23.293 13.6915 23.2552 14.0546 23.0993 14.3726C22.9433 14.6907 22.6794 14.9429 22.3547 15.0844ZM21.75 13.7138L18.9816 2.81251C18.9816 2.81251 18.9816 2.81251 18.9741 2.81251L15.5934 2.25001C15.591 2.24861 15.5883 2.24787 15.5855 2.24787C15.5827 2.24787 15.5799 2.24861 15.5775 2.25001L15.3122 3.29439C15.7809 3.38251 16.2497 3.48751 16.7025 3.61501C16.881 3.66052 17.0365 3.77014 17.1394 3.92297C17.2423 4.0758 17.2853 4.26115 17.2603 4.44367C17.2353 4.6262 17.1439 4.79312 17.0037 4.91261C16.8635 5.03211 16.6842 5.09581 16.5 5.09157C16.4315 5.09138 16.3634 5.08192 16.2975 5.06345C14.8968 4.68337 13.4513 4.49385 12 4.50001C10.5487 4.49355 9.10322 4.68275 7.7025 5.06251C7.60681 5.09209 7.50617 5.10221 7.40651 5.09226C7.30685 5.08232 7.2102 5.05252 7.12224 5.00461C7.03429 4.95671 6.95682 4.89167 6.89441 4.81334C6.832 4.73501 6.7859 4.64497 6.75885 4.54854C6.7318 4.45211 6.72434 4.35124 6.73691 4.25187C6.74947 4.15251 6.78181 4.05667 6.83202 3.97001C6.88222 3.88335 6.94928 3.80762 7.02922 3.74729C7.10917 3.68697 7.20039 3.64326 7.2975 3.61876C7.74937 3.49126 8.21437 3.38626 8.68687 3.29814L8.42156 2.25001C8.42156 2.25001 8.42156 2.25001 8.41031 2.25001L5.02594 2.80595C5.02318 2.80519 5.02026 2.80519 5.0175 2.80595L2.25 13.7184L8.53125 16.5C8.53441 16.5017 8.53796 16.5026 8.54156 16.5026C8.54516 16.5026 8.54871 16.5017 8.55187 16.5L9.1875 14.7863C8.55065 14.6888 7.92016 14.5536 7.29937 14.3813C7.11447 14.3222 6.95968 14.1937 6.86754 14.0229C6.77539 13.852 6.75308 13.6521 6.80528 13.4651C6.85748 13.2782 6.98014 13.1187 7.14746 13.0203C7.31478 12.9219 7.51374 12.8923 7.7025 12.9375C9.10313 13.3177 10.5487 13.5069 12 13.5C13.4513 13.5069 14.8969 13.3177 16.2975 12.9375C16.4891 12.8838 16.6941 12.9084 16.8676 13.0059C17.041 13.1034 17.1686 13.2658 17.2223 13.4574C17.276 13.6489 17.2515 13.854 17.154 14.0274C17.0565 14.2009 16.8941 14.3285 16.7025 14.3822C16.0811 14.5543 15.45 14.6892 14.8125 14.7863L15.4453 16.5C15.4483 16.5017 15.4517 16.5025 15.4552 16.5025C15.4586 16.5025 15.462 16.5017 15.465 16.5L21.75 13.7138Z" fill="black"/>
</svg>
