<svg width="20" height="20" viewBox="0 0 20 20" fill="none" xmlns="http://www.w3.org/2000/svg">
<path d="M9.75 0C7.82164 0 5.93657 0.571828 4.33319 1.64317C2.72982 2.71452 1.48013 4.23726 0.742179 6.01884C0.00422452 7.80042 -0.188858 9.76082 0.187348 11.6521C0.563554 13.5434 1.49215 15.2807 2.85571 16.6443C4.21928 18.0079 5.95656 18.9365 7.84787 19.3127C9.73919 19.6889 11.6996 19.4958 13.4812 18.7578C15.2627 18.0199 16.7855 16.7702 17.8568 15.1668C18.9282 13.5634 19.5 11.6784 19.5 9.75C19.4973 7.16498 18.4692 4.68661 16.6413 2.85872C14.8134 1.03084 12.335 0.00272983 9.75 0ZM9.75 18C8.11831 18 6.52326 17.5161 5.16655 16.6096C3.80984 15.7031 2.75242 14.4146 2.128 12.9071C1.50358 11.3996 1.3402 9.74085 1.65853 8.14051C1.97685 6.54016 2.76259 5.07015 3.91637 3.91637C5.07016 2.76259 6.54017 1.97685 8.14051 1.65852C9.74085 1.34019 11.3997 1.50357 12.9071 2.12799C14.4146 2.75242 15.7031 3.80984 16.6096 5.16655C17.5162 6.52325 18 8.1183 18 9.75C17.9975 11.9373 17.1275 14.0343 15.5809 15.5809C14.0343 17.1275 11.9373 17.9975 9.75 18ZM12.6628 13.6631C12.5698 13.8389 12.4108 13.9705 12.2207 14.029C12.0307 14.0876 11.8252 14.0683 11.6494 13.9753C11.0655 13.6614 10.4129 13.4972 9.75 13.4972C9.0871 13.4972 8.43452 13.6614 7.85063 13.9753C7.67532 14.0635 7.47245 14.0794 7.28553 14.0197C7.09862 13.96 6.94254 13.8294 6.85079 13.6559C6.75904 13.4825 6.73891 13.28 6.79473 13.0919C6.85055 12.9038 6.97787 12.745 7.14938 12.6497C7.95071 12.2258 8.84349 12.0043 9.75 12.0043C10.6565 12.0043 11.5493 12.2258 12.3506 12.6497C12.5264 12.7427 12.658 12.9017 12.7165 13.0918C12.7751 13.2818 12.7558 13.4873 12.6628 13.6631ZM15.6628 8.41312C15.6164 8.50007 15.5534 8.57703 15.4772 8.6396C15.4011 8.70216 15.3134 8.74911 15.2191 8.77775C15.1248 8.8064 15.0258 8.81618 14.9277 8.80654C14.8296 8.7969 14.7344 8.76802 14.6475 8.72156C13.1415 7.91489 11.4594 7.49279 9.75094 7.49279C8.04246 7.49279 6.36043 7.91489 4.85438 8.72156C4.67884 8.8153 4.47325 8.83547 4.28284 8.77762C4.09244 8.71978 3.9328 8.58866 3.83907 8.41312C3.74533 8.23758 3.72516 8.032 3.78301 7.84159C3.84085 7.65118 3.97196 7.49155 4.1475 7.39781C5.87118 6.47533 7.79594 5.99267 9.75094 5.99267C11.7059 5.99267 13.6307 6.47533 15.3544 7.39781C15.4415 7.44427 15.5186 7.50747 15.5812 7.58379C15.6438 7.66011 15.6908 7.74805 15.7194 7.84255C15.7479 7.93706 15.7576 8.03627 15.7477 8.13451C15.7378 8.23274 15.7087 8.32806 15.6619 8.415L15.6628 8.41312ZM14.1628 11.0381C14.0693 11.2136 13.9099 11.3448 13.7197 11.4029C13.5295 11.4609 13.324 11.441 13.1484 11.3475C12.1028 10.7898 10.936 10.498 9.75094 10.498C8.56588 10.498 7.39904 10.7898 6.35344 11.3475C6.17828 11.437 5.97499 11.454 5.78735 11.3951C5.59972 11.3361 5.44277 11.2057 5.35032 11.0321C5.25786 10.8585 5.2373 10.6556 5.29306 10.4669C5.34883 10.2783 5.47645 10.1192 5.64844 10.0237C6.91107 9.35044 8.32001 8.99825 9.75094 8.99825C11.1819 8.99825 12.5908 9.35044 13.8534 10.0237C13.9405 10.0701 14.0176 10.1332 14.0802 10.2094C14.1429 10.2857 14.1899 10.3735 14.2185 10.4679C14.2472 10.5623 14.2569 10.6614 14.2472 10.7596C14.2375 10.8578 14.2085 10.953 14.1619 11.04L14.1628 11.0381Z" fill="black"/>
</svg>
